<?xml version="1.0" standalone="no"?>
<!DOCTYPE svg PUBLIC "-//W3C//DTD SVG 20010904//EN"
 "http://www.w3.org/TR/2001/REC-SVG-20010904/DTD/svg10.dtd">
<svg version="1.0" xmlns="http://www.w3.org/2000/svg"
 width="185.000000pt" height="185.000000pt" viewBox="0 0 185.000000 185.000000"
 preserveAspectRatio="xMidYMid meet">
<metadata>
Created by potrace 1.14, written by Peter Selinger 2001-2017
</metadata>
<g transform="translate(0.000000,185.000000) scale(0.100000,-0.100000)"
fill="#000000" stroke="none">
<path d="M800 1804 c-199 -37 -328 -97 -473 -222 -215 -184 -332 -508 -286
-792 31 -197 144 -405 285 -527 176 -152 363 -223 594 -223 339 0 621 168 781
464 54 100 76 163 94 265 40 223 -6 440 -133 636 -123 190 -296 316 -517 377
-68 18 -287 33 -345 22z m250 -53 l45 -7 -64 -7 c-35 -4 -84 -7 -109 -7 -25 0
-128 -21 -230 -46 -101 -25 -186 -43 -189 -40 -8 8 107 63 171 81 32 9 79 20
104 25 60 10 213 11 272 1z m355 -146 c106 -75 115 -95 34 -76 -35 8 -219 153
-219 172 0 14 116 -47 185 -96z m-541 -5 l6 -85 -105 -90 c-58 -49 -117 -95
-133 -101 -32 -13 -277 -38 -291 -30 -5 3 -12 33 -16 66 l-7 60 86 94 87 94
177 44 c97 24 180 41 184 38 3 -3 9 -43 12 -90z m201 -156 c199 -63 171 -33
225 -238 l32 -120 -114 -113 c-62 -62 -120 -113 -127 -113 -8 0 -85 25 -171
56 l-156 56 -32 101 c-17 56 -39 130 -48 165 l-18 63 44 37 c25 20 76 65 115
99 38 34 72 62 73 62 2 1 82 -24 177 -55z m507 6 c21 -25 52 -72 68 -105 26
-55 29 -71 35 -210 l6 -150 -46 -38 c-25 -22 -51 -37 -58 -34 -34 13 -219 171
-229 195 -14 35 -78 264 -78 279 0 6 28 34 63 62 l62 51 69 -3 c68 -3 70 -4
108 -47z m-1271 -106 c11 -71 11 -73 -36 -240 -47 -168 -48 -169 -100 -223
-71 -72 -85 -67 -85 32 0 162 63 365 151 487 26 36 33 40 44 29 8 -8 19 -46
26 -85z m1430 -416 c27 -30 29 -38 25 -83 -10 -88 -46 -208 -91 -300 -57 -115
-97 -165 -134 -165 -27 0 -28 2 -38 80 l-11 80 59 169 c53 154 62 173 101 210
24 22 46 41 51 41 4 0 21 -15 38 -32z m-827 -38 c88 -33 160 -61 161 -62 2 -2
17 -77 35 -167 27 -140 30 -166 18 -175 -8 -6 -59 -50 -115 -99 -55 -48 -107
-87 -114 -87 -8 0 -84 22 -169 48 l-155 47 -35 100 c-20 55 -44 129 -55 164
l-19 64 34 26 c18 14 81 65 138 114 58 48 108 87 112 87 3 0 77 -27 164 -60z
m-578 -82 c39 -38 78 -74 87 -81 15 -11 117 -300 117 -330 0 -7 -22 -31 -49
-54 l-49 -42 -68 30 c-84 38 -126 86 -188 214 l-43 90 6 92 c7 91 8 94 46 133
44 46 35 49 141 -52z m1137 -310 c3 -13 8 -50 12 -83 l6 -60 -115 -100 c-120
-104 -140 -116 -238 -141 -56 -15 -64 -14 -105 1 -41 16 -48 24 -74 83 -17 36
-28 71 -27 78 2 7 54 56 117 110 l114 97 121 17 c171 25 183 25 189 -2z
m-1022 -250 l11 -21 -29 21 c-16 12 -36 29 -44 38 -13 16 -12 16 18 0 18 -9
38 -26 44 -38z m559 -148 c10 -7 -8 -9 -60 -9 -56 1 -67 3 -45 9 44 11 88 11
105 0z"/>
</g>
</svg>
