<?xml version="1.0" standalone="no"?>
<!DOCTYPE svg PUBLIC "-//W3C//DTD SVG 20010904//EN"
 "http://www.w3.org/TR/2001/REC-SVG-20010904/DTD/svg10.dtd">
<svg version="1.0" xmlns="http://www.w3.org/2000/svg"
 width="260.000000pt" height="260.000000pt" viewBox="0 0 260.000000 260.000000"
 preserveAspectRatio="xMidYMid meet">
<metadata>
Created by potrace 1.14, written by Peter Selinger 2001-2017
</metadata>
<g transform="translate(0.000000,260.000000) scale(0.100000,-0.100000)"
fill="#000000" stroke="none">
<path d="M1091 1808 c-103 -16 -147 -65 -160 -178 -16 -136 3 -245 51 -285 39
-33 122 -37 224 -12 l49 12 1 43 1 44 -46 -7 c-25 -5 -57 -8 -71 -8 -59 0 -57
-4 -55 96 1 132 21 158 125 163 30 1 59 3 63 3 5 1 5 6 2 11 -9 15 -121 12
-160 -4 -44 -19 -59 -65 -54 -174 3 -54 1 -78 -6 -71 -5 5 -12 52 -13 103 -3
71 0 101 12 124 22 42 30 46 121 52 l79 5 2 43 c1 40 0 42 -30 43 -17 1 -42 2
-56 3 -14 1 -49 -2 -79 -6z"/>
<path d="M2135 1772 l-60 -17 5 -35 c4 -28 9 -35 25 -33 109 13 155 15 156 7
0 -5 2 -16 4 -25 2 -13 -14 -20 -75 -33 -54 -11 -85 -24 -103 -41 l-24 -25 -6
39 c-3 22 -13 50 -22 63 -15 19 -16 20 -10 3 15 -39 18 -162 5 -201 -24 -75
-71 -106 -165 -108 l-40 -1 -3 -72 c-3 -70 -4 -73 -27 -74 -44 -2 -48 -4 -53
-17 -3 -11 42 -12 98 -3 3 1 5 29 4 64 -1 69 8 87 36 80 30 -8 116 16 137 39
10 11 25 38 34 61 15 38 16 39 22 16 12 -46 110 -59 179 -23 21 11 33 12 48 4
11 -6 32 -9 47 -6 16 2 34 5 41 5 17 1 16 66 -2 80 -10 8 -13 34 -12 94 3 108
-7 143 -44 162 -37 19 -118 18 -195 -3z m132 -224 c-3 -27 -9 -35 -38 -44 -40
-14 -59 -3 -59 33 0 26 26 41 73 42 26 1 28 -2 24 -31z"/>
<path d="M1845 1747 c-16 -7 -52 -12 -79 -11 -27 1 -55 0 -63 -3 -11 -4 -13
-53 -13 -249 1 -134 4 -245 8 -248 4 -2 28 -2 55 1 l47 6 0 71 0 72 51 2 c74
2 119 28 147 82 20 39 23 56 19 125 -2 44 -10 93 -17 108 -25 51 -91 70 -155
44z m43 -93 c19 -13 22 -24 22 -75 0 -51 -4 -64 -25 -85 -17 -17 -34 -24 -53
-22 -27 3 -27 4 -30 90 l-3 86 28 10 c38 14 36 14 61 -4z"/>
<path d="M258 1725 c-2 -1 -48 -6 -103 -9 -54 -4 -102 -9 -106 -12 -4 -2 -7
-110 -8 -239 l-1 -235 34 0 c19 0 45 4 59 9 21 8 23 14 21 65 -1 31 1 58 5 60
4 3 34 8 66 11 73 8 133 39 158 82 42 72 30 206 -22 239 -22 15 -95 35 -103
29z m22 -110 c7 -9 13 -36 13 -61 0 -60 -23 -83 -90 -91 l-51 -5 0 78 c1 44 3
82 5 87 8 14 110 8 123 -8z"/>
<path d="M1400 1704 c-73 -32 -100 -81 -101 -181 0 -132 46 -180 164 -171 124
10 171 65 171 198 -1 87 -19 132 -64 155 -37 19 -125 19 -170 -1z m113 -95
c22 -30 16 -138 -9 -156 -23 -17 -68 -17 -83 1 -19 23 -16 134 5 157 23 25 69
25 87 -2z"/>
<path d="M418 1625 c13 -26 12 -133 -1 -165 -26 -60 -83 -97 -164 -106 -81 -8
-81 -8 -79 -74 l2 -60 -35 -6 c-20 -3 -42 -7 -49 -10 -19 -6 -5 -23 16 -19 9
2 34 4 54 4 l37 1 -2 65 c-1 36 0 66 3 66 3 1 21 3 40 5 107 11 172 44 194 97
l12 32 2 -44 c2 -56 30 -112 62 -128 34 -17 107 -16 189 3 66 14 68 16 66 43
-4 44 -11 51 -47 40 -46 -13 -136 -15 -147 -4 -14 14 -18 49 -6 50 6 1 48 5
95 10 47 5 89 9 95 9 27 2 24 116 -4 156 -26 36 -59 50 -119 50 -84 0 -169
-57 -173 -117 -1 -10 -5 6 -9 36 -5 29 -16 61 -25 70 -16 15 -17 15 -7 -4z
m243 -92 c13 -34 3 -42 -55 -45 -41 -3 -49 0 -52 15 -4 27 31 57 66 57 24 0
33 -6 41 -27z"/>
<path d="M1645 1625 c25 -70 6 -206 -35 -250 -29 -31 -97 -48 -169 -43 -56 4
-58 3 -39 -11 30 -21 137 -19 186 3 20 9 48 33 62 53 22 32 25 47 25 127 0 73
-4 96 -19 116 -14 19 -17 20 -11 5z"/>
<path d="M789 1535 c6 -27 7 -48 2 -106 -1 -10 -13 -16 -38 -18 -21 -1 -49 -4
-63 -6 -14 -2 -44 -4 -67 -4 -31 -1 -43 -5 -43 -16 0 -12 11 -13 58 -9 76 7
144 13 159 13 28 2 27 119 -2 158 -13 16 -14 15 -6 -12z"/>
<path d="M2420 1452 c0 -28 -4 -32 -36 -38 -19 -3 -46 -2 -59 4 -17 8 -29 7
-51 -5 -16 -9 -55 -17 -86 -17 -63 -1 -63 -15 0 -23 24 -3 59 1 85 10 31 10
65 13 106 10 34 -3 61 -2 62 3 0 5 2 21 4 36 2 15 -3 32 -11 39 -12 9 -14 6
-14 -19z"/>
<path d="M1280 1360 c0 -23 -6 -33 -26 -40 -50 -20 -168 -30 -206 -19 -36 10
-36 3 1 -15 27 -15 119 -16 176 -2 77 17 75 15 75 62 0 24 -4 44 -10 44 -5 0
-10 -14 -10 -30z"/>
<path d="M2480 1337 c-283 -139 -446 -202 -573 -222 -18 -3 -56 -9 -86 -14
-58 -9 -224 -7 -308 4 -29 3 -100 19 -158 34 -58 16 -102 25 -99 20 3 -5 1 -9
-4 -9 -6 0 -12 7 -16 15 -3 8 -11 15 -18 15 -10 0 -9 -3 1 -9 8 -5 11 -16 8
-25 -5 -13 -12 -14 -32 -6 -15 6 -31 7 -37 4 -7 -4 -8 -2 -4 5 4 6 2 19 -5 27
-10 12 -9 13 4 9 8 -4 18 -2 21 3 8 14 -68 2 -81 -13 -4 -4 -2 -5 5 -1 19 11
14 -8 -8 -27 -12 -10 -20 -12 -20 -5 0 7 -6 3 -14 -7 -8 -11 -12 -23 -9 -28 2
-4 -1 -15 -9 -24 -7 -10 -8 -14 -1 -10 6 4 13 1 16 -5 3 -7 10 2 17 20 14 39
54 46 65 11 9 -27 -27 -67 -47 -52 -7 5 -24 10 -38 11 -23 1 -23 0 -6 -10 12
-7 15 -13 7 -17 -7 -5 0 -18 19 -39 27 -30 29 -31 35 -11 5 15 10 18 18 10 6
-6 19 -11 28 -11 9 0 19 -7 23 -15 3 -8 1 -15 -5 -15 -6 0 -7 -5 -4 -10 5 -8
11 -8 19 -1 7 6 23 8 37 6 52 -11 119 -16 224 -17 325 -1 527 64 881 286 123
78 219 146 204 145 -3 0 -25 -10 -50 -22z m-1187 -254 c4 -20 2 -33 -4 -33 -6
0 -7 5 -4 10 3 6 2 10 -2 10 -5 0 -9 14 -9 31 -2 38 11 26 19 -18z m-39 -50
c-4 -23 -11 -29 -27 -28 -12 1 -29 -3 -37 -9 -12 -9 -13 -8 -4 4 6 8 8 24 5
34 -5 13 0 26 13 40 19 19 22 20 39 5 12 -11 15 -24 11 -46z m9 -47 c-10 -14
-27 -27 -37 -30 -12 -3 -7 5 15 24 42 36 45 37 22 6z"/>
<path d="M786 1314 c-3 -9 -4 -20 -1 -24 10 -16 -78 -33 -168 -34 -72 -1 -84
-3 -70 -13 28 -21 110 -21 203 0 54 12 55 13 58 50 3 37 -11 51 -22 21z"/>
<path d="M773 1150 c-16 -6 -23 -18 -23 -35 0 -26 9 -27 67 -10 6 2 19 -2 28
-8 22 -17 9 -48 -49 -112 -25 -27 -46 -54 -47 -60 0 -5 -2 -18 -4 -28 -3 -16
2 -18 53 -13 31 3 71 5 88 5 22 1 33 7 37 20 5 19 -5 43 -17 42 -23 -3 -23 3
4 30 33 36 48 88 31 116 -10 16 -11 16 -10 -7 1 -14 1 -32 0 -41 -1 -22 -79
-109 -98 -109 -10 0 -3 11 18 31 50 46 69 80 69 121 0 27 -6 41 -22 52 -24 17
-90 20 -125 6z"/>
<path d="M542 1127 c-14 -7 -21 -18 -20 -33 2 -20 6 -22 33 -17 16 3 32 6 35
5 67 -1 51 -46 -57 -160 -7 -7 -13 -25 -13 -38 l0 -26 83 7 c45 4 85 9 90 12
4 2 7 15 7 28 0 20 -4 23 -27 19 -26 -5 -26 -5 10 36 49 54 50 97 5 146 -29
31 -38 34 -78 33 -25 -1 -56 -7 -68 -12z m164 -89 c-7 -36 -73 -118 -95 -118
-8 0 7 22 33 50 25 27 47 54 47 60 1 5 3 15 4 20 1 6 3 15 4 22 0 6 4 9 7 5 4
-3 4 -21 0 -39z"/>
<path d="M343 1110 c-40 -16 -57 -57 -57 -135 -1 -90 15 -122 61 -131 84 -16
136 30 137 121 1 30 4 55 9 55 13 0 7 -89 -9 -128 -17 -44 -47 -62 -102 -62
-25 0 -32 -3 -23 -9 17 -11 74 -6 101 9 12 6 28 27 36 45 17 42 19 161 2 171
-7 4 -8 3 -4 -4 4 -7 2 -12 -3 -12 -6 0 -11 11 -11 24 0 50 -76 81 -137 56z
m67 -56 c12 -12 16 -100 6 -131 -8 -26 -41 -36 -57 -17 -14 17 -14 117 1 143
10 20 33 22 50 5z"/>
<path d="M97 1087 c-20 -6 -26 -15 -25 -32 2 -22 5 -23 49 -18 79 9 79 -30 -1
-116 -31 -34 -50 -63 -50 -78 0 -24 2 -24 63 -19 34 3 74 5 90 5 22 1 27 6 27
26 0 18 -5 25 -20 25 -22 0 -27 15 -7 27 20 13 38 40 42 64 l4 24 -19 -25
c-61 -77 -74 -90 -88 -90 -11 0 -2 14 26 43 110 112 55 213 -91 164z"/>
<path d="M937 913 c-5 -7 -5 -17 -2 -23 4 -6 -8 -11 -29 -11 -20 -1 -40 -3
-46 -4 -5 -1 -28 -3 -50 -4 -22 0 -40 -5 -40 -11 0 -5 15 -8 33 -6 17 3 57 8
86 11 30 3 57 7 59 9 2 3 2 15 0 28 -2 16 -6 19 -11 11z"/>
<path d="M708 870 c-3 -9 -58 -18 -131 -19 -22 -1 -36 -5 -32 -11 3 -5 24 -7
45 -5 22 3 59 7 82 10 44 5 67 18 50 29 -6 3 -12 2 -14 -4z"/>
<path d="M261 843 c-1 -13 -7 -23 -13 -23 -53 -2 -136 -14 -148 -21 -14 -8 30
-6 138 5 40 4 41 5 31 36 -7 24 -7 24 -8 3z"/>
</g>
</svg>
